{
  "source": "C:\\Users\\Peter\\Desktop\\stuff\\MIUN\\quantitative_research\\video_compression\\videos\\BVI-HD\\BVI-HD_CDVL_videos\\ORIG\\BubblesPitcher_1920x1080_60fps.mp4",
  "output": "C:\\Users\\Peter\\Desktop\\stuff\\MIUN\\quantitative_research\\video_compression\\compressed_videos\\BVI-HD\\vp9\\4\\BubblesPitcher_1920x1080_60fps_vp9.webm",
  "codec": "vp9",
  "ok": "Input #0, mov,mp4,m4a,3gp,3g2,mj2, from 'C:\\Users\\Peter\\Desktop\\stuff\\MIUN\\quantitative_research\\video_compression\\videos\\BVI-HD\\BVI-HD_CDVL_videos\\ORIG\\BubblesPitcher_1920x1080_60fps.mp4':\n  Metadata:\n    major_brand     : isom\n    minor_version   : 512\n    compatible_brands: isomiso2avc1mp41\n    encoder         : Lavf54.28.101\n  Duration: 00:00:05.00, start: 0.000000, bitrate: 188849 kb/s\n  Stream #0:0[0x1](und): Video: h264 (High 4:4:4 Predictive) (avc1 / 0x31637661), yuv420p(progressive), 1920x1080, 188844 kb/s, 60 fps, 60 tbr, 60 tbn (default)\n    Metadata:\n      handler_name    : VideoHandler\n      vendor_id       : [0][0][0][0]\n[out#0/webm @ 000001f74274cc80] Codec AVOption b:a (set bitrate (in bits/s)) has not been used for any stream. The most likely reason is either wrong type (e.g. a video option with no video streams) or that it is a private option of some decoder which was not actually used for any stream.\nStream mapping:\n  Stream #0:0 -> #0:0 (h264 (native) -> vp9 (libvpx-vp9))\nPress [q] to stop, [?] for help\n[libvpx-vp9 @ 000001f744235480] v1.15.2-100-g40561f514\nOutput #0, webm, to 'C:\\Users\\Peter\\Desktop\\stuff\\MIUN\\quantitative_research\\video_compression\\compressed_videos\\BVI-HD\\vp9\\4\\BubblesPitcher_1920x1080_60fps_vp9.webm':\n  Metadata:\n    major_brand     : isom\n    minor_version   : 512\n    compatible_brands: isomiso2avc1mp41\n    encoder         : Lavf62.3.100\n  Stream #0:0(und): Video: vp9, yuv420p(tv, progressive), 1920x1080, q=2-31, 4000 kb/s, 60 fps, 1k tbn (default)\n    Metadata:\n      encoder         : Lavc62.11.100 libvpx-vp9\n      handler_name    : VideoHandler\n      vendor_id       : [0][0][0][0]\n    Side data:\n      cpb: bitrate max/min/avg: 0/0/0 buffer size: 4000000 vbv_delay: N/A\nframe=    6 fps=0.0 q=31.0 size=       1KiB time=00:00:00.10 bitrate=  50.6kbits/s speed=0.193x elapsed=0:00:00.51    \nframe=   13 fps= 12 q=12.0 size=       1KiB time=00:00:00.21 bitrate=  23.4kbits/s speed=0.206x elapsed=0:00:01.05    \nframe=   19 fps= 12 q=24.0 size=       1KiB time=00:00:00.31 bitrate=  16.0kbits/s speed=0.199x elapsed=0:00:01.58    \nframe=   25 fps= 12 q=14.0 size=       1KiB time=00:00:00.41 bitrate=  12.2kbits/s speed=0.199x elapsed=0:00:02.09    \nframe=   33 fps= 13 q=29.0 size=       1KiB time=00:00:00.55 bitrate=   9.2kbits/s speed=0.21x elapsed=0:00:02.61    \nframe=   39 fps= 12 q=27.0 size=       1KiB time=00:00:00.65 bitrate=   7.8kbits/s speed=0.206x elapsed=0:00:03.15    \nframe=   46 fps= 13 q=29.0 size=       1KiB time=00:00:00.76 bitrate=   6.6kbits/s speed=0.21x elapsed=0:00:03.65    \nframe=   52 fps= 12 q=30.0 size=       1KiB time=00:00:00.86 bitrate=   5.8kbits/s speed=0.207x elapsed=0:00:04.19    \nframe=   58 fps= 12 q=31.0 size=       1KiB time=00:00:00.96 bitrate=   5.2kbits/s speed=0.205x elapsed=0:00:04.71    \nframe=   65 fps= 12 q=31.0 size=       1KiB time=00:00:01.08 bitrate=   4.7kbits/s speed=0.207x elapsed=0:00:05.23    \nframe=   72 fps= 12 q=31.0 size=       1KiB time=00:00:01.20 bitrate=   4.2kbits/s speed=0.208x elapsed=0:00:05.78    \nframe=   78 fps= 12 q=31.0 size=       1KiB time=00:00:01.30 bitrate=   3.9kbits/s speed=0.206x elapsed=0:00:06.30    \nframe=   84 fps= 12 q=31.0 size=       1KiB time=00:00:01.40 bitrate=   3.6kbits/s speed=0.205x elapsed=0:00:06.84    \nframe=   91 fps= 12 q=33.0 size=       1KiB time=00:00:01.51 bitrate=   3.3kbits/s speed=0.206x elapsed=0:00:07.37    \nframe=   97 fps= 12 q=18.0 size=       1KiB time=00:00:01.61 bitrate=   3.1kbits/s speed=0.205x elapsed=0:00:07.87    \nframe=  104 fps= 12 q=33.0 size=       1KiB time=00:00:01.73 bitrate=   2.9kbits/s speed=0.206x elapsed=0:00:08.40    \nframe=  110 fps= 12 q=34.0 size=       1KiB time=00:00:01.83 bitrate=   2.8kbits/s speed=0.205x elapsed=0:00:08.93    \nframe=  118 fps= 12 q=32.0 size=       1KiB time=00:00:01.96 bitrate=   2.6kbits/s speed=0.208x elapsed=0:00:09.46    \nframe=  124 fps= 12 q=31.0 size=       1KiB time=00:00:02.06 bitrate=   2.5kbits/s speed=0.207x elapsed=0:00:09.98    \nframe=  131 fps= 12 q=36.0 size=     768KiB time=00:00:02.18 bitrate=2881.6kbits/s speed=0.208x elapsed=0:00:10.51    \nframe=  138 fps= 13 q=42.0 size=     768KiB time=00:00:02.30 bitrate=2735.4kbits/s speed=0.209x elapsed=0:00:11.02    \nframe=  143 fps= 12 q=44.0 size=     768KiB time=00:00:02.38 bitrate=2639.8kbits/s speed=0.206x elapsed=0:00:11.56    \nframe=  148 fps= 12 q=46.0 size=     768KiB time=00:00:02.46 bitrate=2550.6kbits/s speed=0.204x elapsed=0:00:12.08    \nframe=  152 fps= 12 q=32.0 size=     768KiB time=00:00:02.53 bitrate=2483.5kbits/s speed=0.201x elapsed=0:00:12.60    \nframe=  157 fps= 12 q=47.0 size=     768KiB time=00:00:02.61 bitrate=2404.4kbits/s speed=0.199x elapsed=0:00:13.12    \nframe=  161 fps= 12 q=48.0 size=     768KiB time=00:00:02.68 bitrate=2344.6kbits/s speed=0.197x elapsed=0:00:13.62    \nframe=  165 fps= 12 q=48.0 size=     768KiB time=00:00:02.75 bitrate=2287.8kbits/s speed=0.194x elapsed=0:00:14.16    \nframe=  169 fps= 12 q=50.0 size=     768KiB time=00:00:02.81 bitrate=2233.7kbits/s speed=0.192x elapsed=0:00:14.67    \nframe=  172 fps= 11 q=51.0 size=     768KiB time=00:00:02.86 bitrate=2194.7kbits/s speed=0.189x elapsed=0:00:15.19    \nframe=  175 fps= 11 q=53.0 size=     768KiB time=00:00:02.91 bitrate=2157.1kbits/s speed=0.186x elapsed=0:00:15.70    \nframe=  179 fps= 11 q=54.0 size=     768KiB time=00:00:02.98 bitrate=2108.9kbits/s speed=0.184x elapsed=0:00:16.23    \nframe=  182 fps= 11 q=54.0 size=     768KiB time=00:00:03.03 bitrate=2074.1kbits/s speed=0.181x elapsed=0:00:16.76    \nframe=  186 fps= 11 q=54.0 size=     768KiB time=00:00:03.10 bitrate=2029.5kbits/s speed=0.18x elapsed=0:00:17.26    \nframe=  189 fps= 11 q=58.0 size=     768KiB time=00:00:03.15 bitrate=1997.3kbits/s speed=0.177x elapsed=0:00:17.78    \nframe=  193 fps= 11 q=58.0 size=     768KiB time=00:00:03.21 bitrate=1955.9kbits/s speed=0.176x elapsed=0:00:18.30    \nframe=  196 fps= 10 q=58.0 size=     768KiB time=00:00:03.26 bitrate=1926.0kbits/s speed=0.174x elapsed=0:00:18.81    \nframe=  200 fps= 10 q=44.0 size=     768KiB time=00:00:03.33 bitrate=1887.4kbits/s speed=0.172x elapsed=0:00:19.33    \nframe=  203 fps= 10 q=58.0 size=     768KiB time=00:00:03.38 bitrate=1859.5kbits/s speed=0.17x elapsed=0:00:19.86    \nframe=  207 fps= 10 q=58.0 size=     768KiB time=00:00:03.45 bitrate=1823.6kbits/s speed=0.169x elapsed=0:00:20.37    \nframe=  210 fps= 10 q=59.0 size=     768KiB time=00:00:03.50 bitrate=1797.6kbits/s speed=0.167x elapsed=0:00:20.90    \nframe=  214 fps= 10 q=59.0 size=     768KiB time=00:00:03.56 bitrate=1764.0kbits/s speed=0.166x elapsed=0:00:21.43    \nframe=  217 fps=9.9 q=59.0 size=     768KiB time=00:00:03.61 bitrate=1739.6kbits/s speed=0.165x elapsed=0:00:21.96    \nframe=  221 fps=9.8 q=59.0 size=     768KiB time=00:00:03.68 bitrate=1708.1kbits/s speed=0.164x elapsed=0:00:22.46    \nframe=  224 fps=9.7 q=45.0 size=     768KiB time=00:00:03.73 bitrate=1685.2kbits/s speed=0.162x elapsed=0:00:22.99    \nframe=  228 fps=9.7 q=59.0 size=     768KiB time=00:00:03.80 bitrate=1655.6kbits/s speed=0.162x elapsed=0:00:23.52    \nframe=  231 fps=9.6 q=59.0 size=     768KiB time=00:00:03.85 bitrate=1634.1kbits/s speed=0.16x elapsed=0:00:24.07    \nframe=  234 fps=9.5 q=59.0 size=     768KiB time=00:00:03.90 bitrate=1613.2kbits/s speed=0.159x elapsed=0:00:24.58    \nframe=  238 fps=9.5 q=59.0 size=     768KiB time=00:00:03.96 bitrate=1586.1kbits/s speed=0.158x elapsed=0:00:25.09    \nframe=  241 fps=9.4 q=59.0 size=     768KiB time=00:00:04.01 bitrate=1566.3kbits/s speed=0.157x elapsed=0:00:25.61    \nframe=  245 fps=9.4 q=59.0 size=     768KiB time=00:00:04.08 bitrate=1540.8kbits/s speed=0.156x elapsed=0:00:26.13    \nframe=  248 fps=9.3 q=44.0 size=     768KiB time=00:00:04.13 bitrate=1522.1kbits/s speed=0.155x elapsed=0:00:26.68    \nframe=  251 fps=9.2 q=57.0 size=     768KiB time=00:00:04.18 bitrate=1503.9kbits/s speed=0.154x elapsed=0:00:27.20    \nframe=  255 fps=9.2 q=58.0 size=     768KiB time=00:00:04.25 bitrate=1480.3kbits/s speed=0.153x elapsed=0:00:27.72    \nframe=  259 fps=9.2 q=59.0 size=    1792KiB time=00:00:04.31 bitrate=3400.8kbits/s speed=0.153x elapsed=0:00:28.26    \nframe=  262 fps=9.1 q=59.0 size=    1792KiB time=00:00:04.36 bitrate=3361.8kbits/s speed=0.152x elapsed=0:00:28.78    \nframe=  266 fps=9.1 q=59.0 size=    1792KiB time=00:00:04.43 bitrate=3311.3kbits/s speed=0.151x elapsed=0:00:29.31    \nframe=  269 fps=9.0 q=45.0 size=    1792KiB time=00:00:04.48 bitrate=3274.4kbits/s speed=0.15x elapsed=0:00:29.84    \nframe=  272 fps=8.9 q=58.0 size=    1792KiB time=00:00:04.53 bitrate=3238.2kbits/s speed=0.149x elapsed=0:00:30.40    \nframe=  274 fps=8.8 q=58.0 size=    1792KiB time=00:00:04.56 bitrate=3214.6kbits/s speed=0.147x elapsed=0:00:31.01    \nframe=  276 fps=8.7 q=58.0 size=    1792KiB time=00:00:04.60 bitrate=3191.3kbits/s speed=0.146x elapsed=0:00:31.55    \nframe=  276 fps=8.6 q=58.0 size=    1792KiB time=00:00:04.60 bitrate=3191.3kbits/s speed=0.143x elapsed=0:00:32.08    \nframe=  276 fps=8.5 q=58.0 size=    1792KiB time=00:00:04.60 bitrate=3191.3kbits/s speed=0.141x elapsed=0:00:32.59    \nframe=  276 fps=8.3 q=58.0 size=    1792KiB time=00:00:04.60 bitrate=3191.3kbits/s speed=0.139x elapsed=0:00:33.11    \nframe=  276 fps=8.2 q=58.0 size=    1792KiB time=00:00:04.60 bitrate=3191.3kbits/s speed=0.137x elapsed=0:00:33.65    \nframe=  276 fps=8.1 q=58.0 size=    1792KiB time=00:00:04.60 bitrate=3191.3kbits/s speed=0.135x elapsed=0:00:34.17    \nframe=  276 fps=8.0 q=58.0 size=    1792KiB time=00:00:04.60 bitrate=3191.3kbits/s speed=0.133x elapsed=0:00:34.69    \nframe=  276 fps=7.8 q=58.0 size=    1792KiB time=00:00:04.60 bitrate=3191.3kbits/s speed=0.131x elapsed=0:00:35.22    \n[out#0/webm @ 000001f74274cc80] video:2138KiB audio:0KiB subtitle:0KiB other streams:0KiB global headers:0KiB muxing overhead: 0.130444%\nframe=  300 fps=8.4 q=59.0 Lsize=    2141KiB time=00:00:05.00 bitrate=3507.7kbits/s speed=0.141x elapsed=0:00:35.54    \n",
  "seconds": 35.761881828308105,
  "probe_out": {}
}